<svg width="360" height="360" viewBox="0 0 360 360" xmlns="http://www.w3.org/2000/svg">
<defs>
  <radialGradient id="g" cx="50%" cy="45%" r="60%">
    <stop offset="0%" stop-color="#2b3c6f"/>
    <stop offset="70%" stop-color="#121b35"/>
    <stop offset="100%" stop-color="#0a1226"/>
  </radialGradient>
  <radialGradient id="halo" cx="50%" cy="50%" r="50%">
    <stop offset="0%" stop-color="#7fb6ff" stop-opacity=".24"/>
    <stop offset="60%" stop-color="#7fb6ff" stop-opacity=".10"/>
    <stop offset="100%" stop-color="#7fb6ff" stop-opacity="0"/>
  </radialGradient>
  <filter id="glow" x="-50%" y="-50%" width="200%" height="200%">
    <feGaussianBlur stdDeviation="6" result="b"/>
    <feMerge><feMergeNode in="b"/><feMergeNode in="SourceGraphic"/></feMerge>
  </filter>
</defs>
<circle cx="180" cy="180" r="172" fill="url(#halo)" />
<circle cx="180" cy="180" r="156" fill="url(#halo)" />
<circle cx="180" cy="180" r="150" fill="url(#g)" stroke="#334a86" stroke-dasharray="5 7"/>
<circle cx="180" cy="180" r="118" fill="transparent" stroke="#2a3f79" stroke-width="1"/>
<circle cx="180" cy="180" r="5" fill="#ffd48a" filter="url(#glow)"/>
<g fill="none" stroke="#cfe0ff" stroke-width="1.6" stroke-linecap="round" stroke-linejoin="round">
<g transform="translate(180.0,35.0) scale(1.1) translate(-12,-12)"><use href="zodiac-glyphs.svg#glyph-capricorn" /></g>
<g transform="translate(252.5,54.4) scale(1.1) translate(-12,-12)"><use href="zodiac-glyphs.svg#glyph-aquarius" /></g>
<g transform="translate(305.6,107.5) scale(1.1) translate(-12,-12)"><use href="zodiac-glyphs.svg#glyph-pisces" /></g>
<g transform="translate(325.0,180.0) scale(1.1) translate(-12,-12)"><use href="zodiac-glyphs.svg#glyph-aries" /></g>
<g transform="translate(305.6,252.5) scale(1.1) translate(-12,-12)"><use href="zodiac-glyphs.svg#glyph-taurus" /></g>
<g transform="translate(252.5,305.6) scale(1.1) translate(-12,-12)"><use href="zodiac-glyphs.svg#glyph-gemini" /></g>
<g transform="translate(180.0,325.0) scale(1.1) translate(-12,-12)"><use href="zodiac-glyphs.svg#glyph-cancer" /></g>
<g transform="translate(107.5,305.6) scale(1.1) translate(-12,-12)"><use href="zodiac-glyphs.svg#glyph-leo" /></g>
<g transform="translate(54.4,252.5) scale(1.1) translate(-12,-12)"><use href="zodiac-glyphs.svg#glyph-virgo" /></g>
<g transform="translate(35.0,180.0) scale(1.1) translate(-12,-12)"><use href="zodiac-glyphs.svg#glyph-libra" /></g>
<g transform="translate(54.4,107.5) scale(1.1) translate(-12,-12)"><use href="zodiac-glyphs.svg#glyph-scorpio" /></g>
<g transform="translate(107.5,54.4) scale(1.1) translate(-12,-12)"><use href="zodiac-glyphs.svg#glyph-sagittarius" /></g>
</g></svg>