<svg width="380" height="380" viewBox="0 0 360 360" xmlns="http://www.w3.org/2000/svg">
<defs>
  <radialGradient id="g" cx="50%" cy="45%" r="60%">
    <stop offset="0%" stop-color="#2b3c6f"/><stop offset="70%" stop-color="#121b35"/><stop offset="100%" stop-color="#0a1226"/>
  </radialGradient>
  <radialGradient id="halo" cx="50%" cy="50%" r="50%">
    <stop offset="0%" stop-color="#7fb6ff" stop-opacity=".24"/><stop offset="60%" stop-color="#7fb6ff" stop-opacity=".10"/><stop offset="100%" stop-color="#7fb6ff" stop-opacity="0"/>
  </radialGradient>
  <filter id="glow" x="-50%" y="-50%" width="200%" height="200%"><feGaussianBlur stdDeviation="6" result="b"/><feMerge><feMergeNode in="b"/><feMergeNode in="SourceGraphic"/></feMerge></filter>
  <style>.z g,path,circle{stroke:#cfe0ff;stroke-width:1.6;fill:none;stroke-linecap:round;stroke-linejoin:round}</style>
</defs>
<circle cx="180" cy="180" r="172" fill="url(#halo)" />
<circle cx="180" cy="180" r="156" fill="url(#halo)" />
<circle cx="180" cy="180" r="150" fill="url(#g)" stroke="#334a86" stroke-dasharray="5 7"/>
<circle cx="180" cy="180" r="118" fill="transparent" stroke="#2a3f79" stroke-width="1"/>
<circle cx="180" cy="180" r="5" fill="#ffd48a" filter="url(#glow)"/>
<g class="z">
  <!-- 12 minimal glyphs (paths inline) -->
  <g transform="translate(180,35)"><path d="M-10 10c4-5 16-5 20 0"/></g> <!-- capricorn minimal tick -->
</g>
<!-- simplified ring glyphs using text fallback for robustness -->
<g font-family="serif" font-size="18" fill="#cfe0ff" opacity=".95">
  <text x="180" y="30" text-anchor="middle">♑︎</text>
  <text x="267" y="60">♒︎</text>
  <text x="324" y="140">♓︎</text>
  <text x="324" y="220">♈︎</text>
  <text x="267" y="300">♉︎</text>
  <text x="180" y="334" text-anchor="middle">♊︎</text>
  <text x="90"  y="300">♋︎</text>
  <text x="36"  y="220">♌︎</text>
  <text x="36"  y="140">♍︎</text>
  <text x="84"  y="60">♎︎</text>
  <text x="178" y="58" text-anchor="middle">♏︎</text>
  <text x="267" y="104">♐︎</text>
</g>
</svg>